<!DOCTYPE svg PUBLIC "-//W3C//DTD SVG 1.1//EN" "http://www.w3.org/Graphics/SVG/1.1/DTD/svg11.dtd">
<!-- Uploaded to: SVG Repo, www.svgrepo.com, Transformed by: SVG Repo Mixer Tools -->
<svg fill="#279b10" width="800px" height="800px" viewBox="0 0 16 16" xmlns="http://www.w3.org/2000/svg">
<g id="SVGRepo_bgCarrier" stroke-width="0"/>
<g id="SVGRepo_tracerCarrier" stroke-linecap="round" stroke-linejoin="round"/>
<g id="SVGRepo_iconCarrier"> <path d="M0 8c0 4.418 3.59 8 8 8 4.418 0 8-3.59 8-8 0-4.418-3.59-8-8-8-4.418 0-8 3.59-8 8zm2 0c0-3.307 2.686-6 6-6 3.307 0 6 2.686 6 6 0 3.307-2.686 6-6 6-3.307 0-6-2.686-6-6zm9.778-1.672l-1.414-1.414L6.828 8.45 5.414 7.036 4 8.45l2.828 2.828 3.182-3.182 1.768-1.768z" fill-rule="evenodd"/> </g>
</svg>