<?xml version="1.0" encoding="UTF-8" standalone="no" ?>
<!DOCTYPE svg PUBLIC "-//W3C//DTD SVG 1.1//EN" "http://www.w3.org/Graphics/SVG/1.1/DTD/svg11.dtd">
<svg xmlns="http://www.w3.org/2000/svg" xmlns:xlink="http://www.w3.org/1999/xlink" version="1.1" width="1080" height="1080" viewBox="0 0 1080 1080" xml:space="preserve">
<desc>Created with Fabric.js 5.2.4</desc>
<defs>
</defs>
<rect x="0" y="0" width="100%" height="100%" fill="transparent"></rect>
<g transform="matrix(1 0 0 1 540 540)" id="96044090-8885-4b13-8e4f-55bc7dff9f82"  >
<rect style="stroke: none; stroke-width: 1; stroke-dasharray: none; stroke-linecap: butt; stroke-dashoffset: 0; stroke-linejoin: miter; stroke-miterlimit: 4; fill: rgb(255,255,255); fill-rule: nonzero; opacity: 1; visibility: hidden;" vector-effect="non-scaling-stroke"  x="-540" y="-540" rx="0" ry="0" width="1080" height="1080" />
</g>
<g transform="matrix(1 0 0 1 540 540)" id="c45c0957-c6ad-4c50-9961-95aa5be1b7f6"  >
</g>
<g transform="matrix(21.79 0 0 22.72 540 512.58)" id="389d5490-276c-4d75-80b6-15a5f3c8c7cf"  >
<path style="stroke: rgb(0,0,0); stroke-width: 0; stroke-dasharray: none; stroke-linecap: butt; stroke-dashoffset: 0; stroke-linejoin: miter; stroke-miterlimit: 4; fill: rgb(239,68,68); fill-rule: nonzero; opacity: 1;" vector-effect="non-scaling-stroke"  transform=" translate(-8, -8)" d="M 9.414 8 L 11.536 5.879 L 10.120999999999999 4.4639999999999995 L 8 6.586 L 5.879 4.464 L 4.464 5.88 L 6.586 8 L 4.464 10.121 L 5.8790000000000004 11.536000000000001 L 8 9.414 L 10.121 11.536 L 11.536000000000001 10.120999999999999 L 9.414 8 z M 0 8 C 0 12.418 3.59 16 8 16 C 12.418 16 16 12.41 16 8 C 16 3.582 12.41 0 8 0 C 3.582 0 0 3.59 0 8 z M 2 8 C 2 4.693 4.686 2 8 2 C 11.307 2 14 4.686 14 8 C 14 11.307 11.314 14 8 14 C 4.693 14 2 11.314 2 8 z" stroke-linecap="round" />
</g>
<g transform="matrix(NaN NaN NaN NaN 0 0)"  >
<g style=""   >
</g>
</g>
</svg>